# xmcd
#
# Track frame offsets: 
#        150
#        18854
#        40804
#        58946
#        85922
#        100516
#        119285
#        133745
#        159243
#        177667
#
# Disc length: 2562 seconds
#
# Revision: 0
# Processed by: cddbd v1.5.2PL0 Copyright (c) Steve Scherf et al.
# Submitted via: ExactAudioCopyFreeDBPlugin 1.0
#
DISCID=7b0a000a
DTITLE=Stretch - Lifeblood
DYEAR=1977
DGENRE=Blues
TTITLE0=End up Crying
TTITLE1=Knives in their Backs
TTITLE2=Rock´n´Roll Hoochie-Coo
TTITLE3=Right or Wrong
TTITLE4=Show Biz Blues
TTITLE5=You can´t beat your Brain for Entertainment
TTITLE6=Jonah and the Whale
TTITLE7=Living on the Highway
TTITLE8=Take you down
TTITLE9=Let´s spend the night together
EXTD=
EXTT0=
EXTT1=
EXTT2=
EXTT3=
EXTT4=
EXTT5=
EXTT6=
EXTT7=
EXTT8=
EXTT9=
PLAYORDER=
